<?xml version="1.0" encoding="utf-8"?>
<!-- Generator: Adobe Illustrator 27.1.1, SVG Export Plug-In . SVG Version: 6.00 Build 0)  -->
<svg version="1.1"
	 id="Capa_1" image-rendering="optimizeQuality" shape-rendering="geometricPrecision" text-rendering="geometricPrecision"
	 xmlns="http://www.w3.org/2000/svg" xmlns:xlink="http://www.w3.org/1999/xlink" x="0px" y="0px" viewBox="0 0 1333.3 1333.3"
	 style="enable-background:new 0 0 1333.3 1333.3;" xml:space="preserve">
<path d="M1133.6,356.1c-82.4-82.4-193.2-128-310.3-128s-228,45.6-310.3,128l-8.8,8.8c-21.1-3.4-40.2-5.4-61.3-5.4
	c-98.1,0-193.2,38.7-263.3,110.3c-145.6,145.6-145.6,380.9,0,526.6c70.1,70.1,163.3,108.8,263.3,108.8h389.8
	c115.7-2,223.1-47.6,303.5-128C1305.7,805.2,1305.7,526.2,1133.6,356.1L1133.6,356.1z M443.8,1024.8c-78.9,0-151-33.3-205.4-89.7
	c-114.2-114.2-114.2-298.1,0-410.8c54.4-54.4,128-85.8,205.4-85.8h2c15.7,0,27.9,2,42.2,3.4c15.7,3.4,29.9,5.4,45.6,10.3
	c27.9,8.8,54.4,23,77,38.7c10.3,8.8,23,15.7,31.4,26.5l8.8,8.8l119.1,119.1c15.7,15.7,15.7,40.2,0,57.8
	c-8.8,8.8-17.6,12.3-27.9,12.3c-10.3,0-21.1-3.4-27.9-12.3l-98.1-98.1L594.8,584c-3.4-3.4-6.9-5.4-8.8-8.8
	c-27.9-24.5-61.3-40.2-98.1-47.6c-12.3-3.4-26.5-3.4-38.7-3.4h-5.4c-54.4,2-103.5,23-142.2,61.3c-82.4,82.4-82.4,214.3,0,296.6
	c40.2,40.2,91.2,61.3,149,61.3h36.8l35.3,33.3c17.6,17.6,35.3,35.3,56.4,47.6H443.8L443.8,1024.8L443.8,1024.8z M1077.2,919.4
	c-36.8,36.8-80.9,64.7-129.9,82.4c-15.7,5.4-29.9,8.8-45.6,14.2c-23,5.4-47.6,8.8-72.1,8.8h-6.9c-84.3,0-163.3-27.9-226.5-80.9
	c-8.8-6.9-17.6-15.7-26.5-23L401.1,752.2c-15.7-15.7-15.7-40.2,0-57.8c8.8-8.8,17.6-12.3,27.9-12.3c10.3,0,21.1,3.4,27.9,12.3
	L623.7,861c15.7,15.7,33.3,27.9,51,40.2c42.2,26.5,91.2,40.2,143.6,40.2c23,0,47.6-3.4,68.6-8.8c14.2-3.4,27.9-8.8,40.2-14.2
	c31.4-14.2,61.3-33.3,87.8-59.8c106.9-106.9,106.9-282.4,0-389.8c-54.4-54.4-124.5-80.9-194.6-80.9c-54.4,0-106.9,15.7-154.4,47.6
	c-23-17.6-47.6-33.3-75.5-45.6c66.7-54.4,149-82.4,229.9-82.4c91.2,0,182.4,35.3,252.5,103.5C1216,552.7,1216,779.2,1077.2,919.4
	L1077.2,919.4z"/>
</svg>
