<?xml version="1.0" encoding="utf-8"?>
<!-- Generator: Adobe Illustrator 27.1.1, SVG Export Plug-In . SVG Version: 6.00 Build 0)  -->
<svg version="1.1" id="Layer_1" xmlns="http://www.w3.org/2000/svg" xmlns:xlink="http://www.w3.org/1999/xlink" x="0px" y="0px"
	 viewBox="0 0 100.2 100.2" style="enable-background:new 0 0 100.2 100.2;" xml:space="preserve">
<style type="text/css">
	.st0{fill:none;stroke:#000000;stroke-width:3;stroke-linecap:round;stroke-linejoin:round;stroke-miterlimit:10;}
	.st1{fill:#121212;}
</style>
<polyline class="st0" points="70,57.8 82.5,45.8 95,57.8 "/>
<g>
	<path class="st1" d="M83.9,45.6c-0.1-0.8-0.8-1.4-1.6-1.4c-0.8,0.1-1.4,0.8-1.4,1.6c0.1,1,0.1,2,0.1,2.9c0,17.3-14,31.4-31.3,31.4
		c-8.4,0-16.2-3.3-22.1-9.2c-0.6-0.6-1.5-0.6-2.1,0s-0.6,1.5,0,2.1c6.5,6.5,15.1,10.1,24.3,10.1C68.6,83.3,84,67.8,84,48.8
		C84,47.8,83.9,46.7,83.9,45.6z"/>
	<path class="st1" d="M31.1,44.7c-0.6-0.6-1.5-0.6-2.1,0l-10.4,10C18.2,52.8,18,51,18,49.1c0-17.3,14.1-31.3,31.3-31.3
		c8.4,0,16.2,3.2,22.1,9.1c0.6,0.6,1.5,0.6,2.1,0c0.6-0.6,0.6-1.5,0-2.1c-6.5-6.5-15.1-10-24.2-10C30.4,14.8,15,30.1,15,49.1
		c0,1.5,0.1,3,0.3,4.5L6,44.7c-0.6-0.6-1.5-0.6-2.1,0c-0.6,0.6-0.6,1.5,0,2.1l12.5,12c0.3,0.3,0.7,0.4,1,0.4s0.7-0.1,1-0.4l12.5-12
		C31.6,46.3,31.7,45.3,31.1,44.7z"/>
</g>
</svg>
