<?xml version="1.0" encoding="utf-8"?>
<!-- Generator: Adobe Illustrator 27.1.1, SVG Export Plug-In . SVG Version: 6.00 Build 0)  -->
<svg version="1.1" id="Layer_1" xmlns="http://www.w3.org/2000/svg" xmlns:xlink="http://www.w3.org/1999/xlink" x="0px" y="0px"
	 viewBox="0 0 100.4 100.4" style="enable-background:new 0 0 100.4 100.4;" xml:space="preserve">
<style type="text/css">
	.st0{fill:#121212;}
</style>
<path class="st0" d="M97.9,50.8c-0.4-0.7-1.3-1.1-2-0.7l-10.6,5.2l-7.2,3.1c-1.1-0.3-4-1-6.5-1.8l-1.3-0.5c-0.2-0.1-0.4-0.1-0.6-0.1
	c-0.9-0.3-1.7-0.6-2.2-0.8c-2.5-1.1-7-3.7-8.7-5.2c-2-1.8-7.3-8.3-7.4-8.3c-0.4-0.6-1.2-0.7-1.9-0.4c-1.5,0.8-6.2,2.8-8.7,2
	c-1.3-0.4-3.8-1.7-4.4-2.6c-0.5-0.6-0.9-2.6-0.6-3.2c0.5-0.3,2.6,0.1,3.6,0.2c1.7,0.3,3.3,0.6,4.6,0.2c2.4-0.8,7.3-5,8.5-6
	c1.2-0.4,7-2.4,11-0.8c2.1,0.8,4.2,1.1,6.1,1.1c4,0,7-1.4,7.2-1.5L91.5,23c0.7-0.4,1-1.3,0.6-2c-0.4-0.7-1.3-1-2-0.6l-14.7,7.8
	c-0.1,0-5.3,2.4-10.8,0.2c-4.8-1.9-11,0-12.9,0.7c-2.1-0.8-8-2.9-10.6-2.5c-2.4,0.4-9.5,0.7-12.4,0.2c-1.2-0.3-10.4-5.3-18.5-9.9
	c-0.7-0.4-1.6-0.1-2,0.6c-0.4,0.7-0.1,1.6,0.6,2c5.3,3,17.7,9.9,19.4,10.2c3.5,0.7,11.1,0.2,13.5-0.2c1.2-0.2,4.4,0.7,7.2,1.7
	c-2.1,1.7-4.6,3.6-5.7,3.9c-0.6,0.2-2-0.1-3.2-0.3c-2.4-0.4-4.8-0.8-6.3,0.6c-1.6,1.6-0.6,5.8,0.5,7.2c1.2,1.5,4.2,3,5.9,3.5
	c3.2,0.9,7.7-0.8,9.8-1.7c1.6,1.9,5.2,6.3,7,7.8c2.2,1.9,7.1,4.7,9.5,5.7c0.9,0.4,2.5,0.9,4.2,1.4l7,2.6c0.4,0.2,0.6,0.5,0.8,1.1
	c0.3,0.9,0.3,2.1-0.2,2.9c-0.5,1.1-1.6,1.6-2.7,1.5c-0.2-0.1-0.4-0.2-0.7-0.2l-9.5-4.9c-0.7-0.4-1.6-0.1-2,0.6s-0.1,1.6,0.6,2l9.6,5
	c0,0,0.1,0,0.1,0c0.1,0.4,0,0.6-0.1,1c-0.1,0.2-0.2,0.5-0.2,0.8c-0.6,1.2-2.1,1.7-3.3,1.2l-8.1-3.5c0,0-0.1,0-0.1,0c0,0-0.1,0-0.1,0
	c0,0-0.1,0-0.1,0c0,0-0.1,0-0.1,0c-0.1,0-0.1,0-0.2,0c0,0-0.1,0-0.1,0c0,0-0.1,0-0.1,0c0,0-0.1,0-0.1,0c0,0-0.1,0-0.1,0.1
	c0,0-0.1,0-0.1,0.1c0,0-0.1,0.1-0.1,0.1c0,0-0.1,0.1-0.1,0.1c0,0-0.1,0.1-0.1,0.1c0,0-0.1,0.1-0.1,0.1c0,0-0.1,0.1-0.1,0.1
	c0,0,0,0.1-0.1,0.1c0,0,0,0,0,0c0,0,0,0,0,0c0,0,0,0.1,0,0.1c0,0.1,0,0.1,0,0.2c0,0,0,0.1,0,0.1c0,0.1,0,0.1,0,0.2c0,0,0,0.1,0,0.1
	s0,0.1,0,0.1c0,0,0,0.1,0,0.1c0,0,0,0.1,0,0.1c0,0,0,0.1,0.1,0.1c0,0,0,0.1,0.1,0.1c0,0,0.1,0.1,0.1,0.1c0,0,0.1,0.1,0.1,0.1
	c0,0,0.1,0.1,0.1,0.1c0,0,0.1,0.1,0.1,0.1c0,0,0.1,0.1,0.1,0.1c0,0,0.1,0,0.1,0.1l2.1,1.1c1.3,0.6,1.8,2.1,1.2,3.4
	c-0.3,0.6-0.8,1.1-1.5,1.3c-0.6,0.2-1.3,0.2-1.9-0.1l-6-2.9l1.7-2.9c1.7-2.8,0.7-6.4-2.1-8.1c0,0,0,0,0,0c-1.2-0.7-2.7-1-4-0.7
	c0.3-2.7-0.9-5.4-3.4-6.8c0,0,0,0,0,0c-2.4-1.4-5.3-1.2-7.5,0.3c-0.4-1.3-1.3-2.5-2.6-3.2c-2.8-1.7-6.5-0.7-8.1,2.1l-4,6.8l-9.8-7
	c0,0-0.1,0-0.1-0.1c0,0-0.1,0-0.1-0.1L4.1,50.1c-0.7-0.4-1.6-0.1-2,0.7c-0.4,0.7-0.1,1.6,0.7,2l10.5,5.1l10.1,7.2
	c-0.8,2.6,0.3,5.4,2.7,6.8c0.9,0.6,2,0.8,3,0.8c0.3,0,0.7,0,1-0.1c-0.3,2.7,0.9,5.4,3.4,6.9c1.1,0.6,2.3,1,3.5,1
	c0.6,0,1.3-0.1,1.9-0.3c0.8-0.2,1.5-0.5,2.1-1c0.4,1.3,1.3,2.4,2.6,3.2c0.9,0.6,2,0.8,3,0.8c2,0,4-1,5.1-2.9l1.6-2.7l6.3,3
	c0.8,0.4,1.6,0.5,2.4,0.5c0.6,0,1.3-0.1,1.9-0.3c1.4-0.5,2.5-1.5,3.2-2.9c0.4-0.9,0.6-1.9,0.5-2.9l1.5,0.7c0.7,0.3,1.5,0.5,2.2,0.5
	c2.2,0,4.2-1.3,5.1-3.4c0.1-0.2,0.1-0.4,0.1-0.6c0-0.1,0.1-0.2,0.1-0.3c0.1-0.4,0.3-0.8,0.3-1.4c1.8-0.3,3.4-1.4,4.3-3.1
	c0.8-1.6,0.9-3.6,0.3-5.2c-0.2-0.6-0.5-1-0.8-1.5l6.1-2.6c0,0,0,0,0,0c0,0,0,0,0,0l10.6-5.2C98,52.5,98.3,51.6,97.9,50.8z
	 M27.6,69.4c-1.4-0.8-1.9-2.6-1-4l4.9-8.2c0.5-0.9,1.5-1.4,2.5-1.4c0.5,0,1,0.1,1.5,0.4c1.4,0.8,1.8,2.6,1,4l-4.9,8.2
	C30.7,69.7,28.9,70.2,27.6,69.4z M38,77.4c-1.1,0.3-2.1,0.1-3.1-0.4c-1.9-1.1-2.5-3.7-1.4-5.7l6.3-10.6c0.8-1.3,2.2-2.1,3.6-2.1
	c0.7,0,1.4,0.2,2,0.5c1.9,1.1,2.5,3.7,1.3,5.7l-6.3,10.6C39.9,76.4,39,77.1,38,77.4z M49,78.9c-0.8,1.4-2.6,1.8-4,1
	c-1.4-0.8-1.9-2.6-1-4l4.8-8.2c0.5-0.9,1.5-1.4,2.5-1.4c0.5,0,1,0.1,1.5,0.4c1.4,0.8,1.8,2.6,1,4l-2,3.5c-0.4,0.1-0.8,0.4-1,0.8
	c-0.2,0.3-0.2,0.7-0.1,1L49,78.9z"/>
</svg>
