<?xml version="1.0" encoding="utf-8"?>
<!-- Generator: Adobe Illustrator 27.1.1, SVG Export Plug-In . SVG Version: 6.00 Build 0)  -->
<svg version="1.1" id="Layer_1" xmlns="http://www.w3.org/2000/svg" xmlns:xlink="http://www.w3.org/1999/xlink" x="0px" y="0px"
	 viewBox="0 0 100.4 100.4" style="enable-background:new 0 0 100.4 100.4;" xml:space="preserve">
<style type="text/css">
	.st0{fill:#121212;}
</style>
<path class="st0" d="M92,18H55.5c-2.9,0-5.2,2.3-5.2,5.2v4.4H9.5c-3.7,0-6.7,3-6.7,6.7v30.7c0,3.7,3,6.7,6.7,6.7h6.4v12.9
	c0,0.6,0.4,1.1,0.9,1.4c0.2,0.1,0.4,0.1,0.6,0.1c0.4,0,0.7-0.1,1-0.4l15.4-14h26.8c3.7,0,6.7-3,6.7-6.7V50.3h7.3l10.9,9.9
	c0.3,0.3,0.6,0.4,1,0.4c0.2,0,0.4,0,0.6-0.1c0.5-0.2,0.9-0.8,0.9-1.4v-8.8H92c2.9,0,5.2-2.3,5.2-5.2V23.2C97.2,20.4,94.9,18,92,18z
	 M64.2,64.9c0,2-1.6,3.7-3.7,3.7H33.2c-0.4,0-0.7,0.1-1,0.4L18.9,81.1v-11c0-0.8-0.7-1.5-1.5-1.5H9.5c-2,0-3.7-1.6-3.7-3.7V34.2
	c0-2,1.6-3.7,3.7-3.7h42.4c0,0,0,0,0,0s0,0,0,0h8.7c2,0,3.7,1.6,3.7,3.7V64.9L64.2,64.9z M94.2,45.1c0,1.2-1,2.2-2.2,2.2h-5.6
	c-0.8,0-1.5,0.7-1.5,1.5v6.9l-8.8-8c-0.3-0.2-0.6-0.4-1-0.4h-7.9V34.2c0-3.7-3-6.7-6.7-6.7h-7.2v-4.4c0-1.2,1-2.2,2.2-2.2H92
	c1.2,0,2.2,1,2.2,2.2C94.2,23.2,94.2,45.1,94.2,45.1z"/>
</svg>
