<?xml version="1.0" encoding="utf-8"?>
<!-- Generator: Adobe Illustrator 27.1.1, SVG Export Plug-In . SVG Version: 6.00 Build 0)  -->
<svg version="1.1" id="Слой_2" xmlns="http://www.w3.org/2000/svg" xmlns:xlink="http://www.w3.org/1999/xlink" x="0px" y="0px"
	 viewBox="0 0 100 100" style="enable-background:new 0 0 100 100;" xml:space="preserve">
<style type="text/css">
	.st0{fill:#121212;}
</style>
<path class="st0" d="M90.5,23h-81C8.7,23,8,23.7,8,24.5v51C8,76.3,8.7,77,9.5,77h81c0.8,0,1.5-0.7,1.5-1.5v-51
	C92,23.7,91.3,23,90.5,23z M11,27.9l24.1,21.7L11,72V27.9z M50,59L13.4,26h73.3L50,59z M37.4,51.7L49,62.1c0.6,0.5,1.4,0.5,2,0
	l11.4-10.3L87.2,74H13.2L37.4,51.7z M64.6,49.8L89,27.9v43.7L64.6,49.8z"/>
</svg>
