<?xml version="1.0" encoding="utf-8"?>
<!-- Generator: Adobe Illustrator 27.1.1, SVG Export Plug-In . SVG Version: 6.00 Build 0)  -->
<svg version="1.1" id="Layer_1" xmlns="http://www.w3.org/2000/svg" xmlns:xlink="http://www.w3.org/1999/xlink" x="0px" y="0px"
	 viewBox="0 0 122.9 122.9" style="enable-background:new 0 0 122.9 122.9;" xml:space="preserve">
<style type="text/css">
	.st0{fill:none;stroke:#000000;stroke-width:7;stroke-miterlimit:10;}
</style>
<g>
	<path class="st0" d="M43.2,116.5c10.2,0,18.4-8.2,18.4-18.4V79.6H43.2C33,79.6,24.8,87.9,24.8,98S33,116.5,43.2,116.5L43.2,116.5
		L43.2,116.5z"/>
	<path class="st0" d="M24.8,61.2c0-10.2,8.3-18.4,18.4-18.4h18.4v36.8H43.2C33,79.6,24.8,71.4,24.8,61.2L24.8,61.2L24.8,61.2z"/>
	<path class="st0" d="M24.8,24.4C24.8,14.3,33,6,43.2,6h18.4v36.8H43.2C33,42.8,24.8,34.6,24.8,24.4L24.8,24.4z"/>
	<path class="st0" d="M61.6,6H80c10.2,0,18.4,8.3,18.4,18.4c0,10.2-8.2,18.4-18.4,18.4H61.6V6L61.6,6z"/>
	<path class="st0" d="M98.4,61.2c0,10.2-8.2,18.4-18.4,18.4s-18.4-8.2-18.4-18.4c0-10.2,8.2-18.4,18.4-18.4S98.4,51.1,98.4,61.2
		L98.4,61.2z"/>
</g>
</svg>
