<?xml version="1.0" encoding="utf-8"?>
<!-- Generator: Adobe Illustrator 27.1.1, SVG Export Plug-In . SVG Version: 6.00 Build 0)  -->
<svg version="1.1" id="Layer_1" xmlns="http://www.w3.org/2000/svg" xmlns:xlink="http://www.w3.org/1999/xlink" x="0px" y="0px"
	 viewBox="0 0 122.9 122.9" style="enable-background:new 0 0 122.9 122.9;" xml:space="preserve">
<path d="M91.8,42.8c6-3.9,10.1-10.7,10.1-18.4c0-12.1-9.8-21.9-21.9-21.9H43.2c-12.1,0-21.9,9.8-21.9,21.9c0,7.7,4,14.5,10,18.4
	c-6,3.9-10,10.7-10,18.4c0,7.7,4,14.5,10,18.4c-6,3.9-10,10.7-10,18.4c0,12.1,9.8,22,21.9,22s21.9-9.8,21.9-21.9V77.2
	c3.9,3.6,9.2,5.9,14.9,5.9c12.1,0,21.9-9.8,21.9-21.9C101.9,53.5,97.9,46.7,91.8,42.8z M58.1,98.1c0,8.2-6.7,14.9-14.9,14.9
	c-8.2,0-14.9-6.7-14.9-15c0-8.2,6.7-14.9,14.9-14.9h14.9V98.1z M58.1,76.1H43.2c-8.2,0-14.9-6.7-14.9-14.9c0-8.2,6.7-14.9,14.9-14.9
	h14.9V76.1z M58.1,39.3H43.2c-8.2,0-14.9-6.7-14.9-14.9c0-8.2,6.7-14.9,14.9-14.9h14.9V39.3z M65.1,9.5H80c8.2,0,14.9,6.7,14.9,14.9
	c0,8.2-6.7,14.9-14.9,14.9H65.1V9.5z M80,76.1c-8.2,0-14.9-6.7-14.9-14.9c0-8.2,6.7-14.9,14.9-14.9S94.9,53,94.9,61.2
	C94.9,69.4,88.2,76.1,80,76.1z"/>
</svg>
