<?xml version="1.0" encoding="utf-8"?>
<!-- Generator: Adobe Illustrator 27.1.1, SVG Export Plug-In . SVG Version: 6.00 Build 0)  -->
<svg version="1.1" id="Capa_1" xmlns="http://www.w3.org/2000/svg" xmlns:xlink="http://www.w3.org/1999/xlink" x="0px" y="0px"
	 viewBox="0 0 100 100" style="enable-background:new 0 0 100 100;" xml:space="preserve">
<style type="text/css">
	.st0{fill:#121212;}
</style>
<path class="st0" d="M42.9,76.9c2.8,0.7,5.7,1.1,8.7,1.1c3.2,0,8.5-1,8.5-1l0-2.5c0,0,0-4.9,0-9.5c0-3.2-1.1-5.3-2.3-6.4
	c7.7-0.9,15.8-3.8,15.8-17.1c0-3.8-1.3-6.9-3.6-9.3c0.4-0.9,1.5-4.4-0.3-9.2c0,0-2.9-0.9-9.5,3.5c-2.8-0.8-5.7-1.2-8.7-1.2
	c-2.9,0-5.9,0.4-8.7,1.2c-6.6-4.5-9.5-3.5-9.5-3.5c-1.9,4.8-0.7,8.3-0.3,9.2c-2.2,2.4-3.6,5.5-3.6,9.3c0,13.3,8.1,16.2,15.8,17.1
	c-1,0.9-1.9,2.4-2.2,4.6c-2,0.9-7,2.4-10.1-2.9c0,0-1.8-3.3-5.3-3.6c0,0-3.4,0-0.2,2.1c0,0,2.3,1.1,3.8,5.1c0,0,2,6.7,11.7,4.6
	c0,2.9,0,5.1,0,5.9"/>
</svg>
