<?xml version="1.0" encoding="utf-8"?>
<!-- Generator: Adobe Illustrator 27.1.1, SVG Export Plug-In . SVG Version: 6.00 Build 0)  -->
<svg version="1.1" id="Capa_1" xmlns="http://www.w3.org/2000/svg" xmlns:xlink="http://www.w3.org/1999/xlink" x="0px" y="0px"
	 viewBox="0 0 100 100" style="enable-background:new 0 0 100 100;" xml:space="preserve">
<style type="text/css">
	.st0{fill:#121212;}
</style>
<path class="st0" d="M75,55.3v18.5H64.3V56.5c0-4.3-1.6-7.3-5.4-7.3c-3,0-4.7,2-5.5,3.9c-0.3,0.7-0.4,1.6-0.4,2.6v18H42.3
	c0,0,0.1-29.2,0-32.2H53v4.6c0,0,0,0.1-0.1,0.1H53v-0.1c1.4-2.2,4-5.3,9.7-5.3C69.7,40.8,75,45.4,75,55.3z M31.1,26
	c-3.7,0-6.1,2.4-6.1,5.6c0,3.1,2.3,5.6,5.9,5.6H31c3.7,0,6.1-2.5,6.1-5.6C37,28.4,34.7,26,31.1,26z M25.6,73.8h10.7V41.5H25.6V73.8z
	"/>
</svg>
