<?xml version="1.0" encoding="utf-8"?>
<!-- Generator: Adobe Illustrator 27.1.1, SVG Export Plug-In . SVG Version: 6.00 Build 0)  -->
<svg version="1.1" id="Layer_1" xmlns="http://www.w3.org/2000/svg" xmlns:xlink="http://www.w3.org/1999/xlink" x="0px" y="0px"
	 viewBox="0 0 100.4 100.4" style="enable-background:new 0 0 100.4 100.4;" xml:space="preserve">
<style type="text/css">
	.st0{fill:#121212;}
</style>
<g>
	<path class="st0" d="M49.9,5.2c-24.6,0-44.6,20-44.6,44.6c0,24.6,20,44.6,44.6,44.6c24.6,0,44.6-20,44.6-44.6S74.5,5.2,49.9,5.2z
		 M49.9,91.5C27,91.5,8.3,72.8,8.3,49.8S27,8.2,49.9,8.2s41.6,18.7,41.6,41.6S72.9,91.5,49.9,91.5z"/>
	<path class="st0" d="M68.3,57.1H31.6c-0.8,0-1.5,0.7-1.5,1.5c0,10.9,8.9,19.8,19.8,19.8c10.9,0,19.8-8.9,19.8-19.8
		C69.8,57.8,69.1,57.1,68.3,57.1z M49.9,75.4c-8.8,0-16-6.8-16.8-15.3h33.6C65.9,68.7,58.7,75.4,49.9,75.4z"/>
	<path class="st0" d="M39.1,36.5c0-4-3.3-7.3-7.3-7.3s-7.3,3.3-7.3,7.3s3.3,7.3,7.3,7.3C35.8,43.8,39.1,40.5,39.1,36.5z M27.4,36.5
		c0-2.4,1.9-4.3,4.3-4.3s4.3,1.9,4.3,4.3s-1.9,4.3-4.3,4.3S27.4,38.8,27.4,36.5z"/>
	<path class="st0" d="M67.3,29.1c-4,0-7.3,3.3-7.3,7.3s3.3,7.3,7.3,7.3s7.3-3.3,7.3-7.3S71.3,29.1,67.3,29.1z M67.3,40.8
		c-2.4,0-4.3-1.9-4.3-4.3s1.9-4.3,4.3-4.3s4.3,1.9,4.3,4.3S69.7,40.8,67.3,40.8z"/>
</g>
</svg>
