<?xml version="1.0" encoding="utf-8"?>
<!-- Generator: Adobe Illustrator 27.1.1, SVG Export Plug-In . SVG Version: 6.00 Build 0)  -->
<svg version="1.1" id="Layer_1" xmlns="http://www.w3.org/2000/svg" xmlns:xlink="http://www.w3.org/1999/xlink" x="0px" y="0px"
	 viewBox="0 0 102 102" style="enable-background:new 0 0 102 102;" xml:space="preserve">
<style type="text/css">
	.st0{fill:#121212;}
</style>
<g>
	<path class="st0" d="M70.9,8.5H30.8c-3,0-5.4,2.4-5.4,5.4v74.1c0,3,2.4,5.4,5.4,5.4h40.1c3,0,5.4-2.4,5.4-5.4V13.8
		C76.3,10.9,73.9,8.5,70.9,8.5z M73.3,87.9c0,1.3-1.1,2.4-2.4,2.4H30.8c-1.3,0-2.4-1.1-2.4-2.4V13.8c0-1.3,1.1-2.4,2.4-2.4h40.1
		c1.3,0,2.4,1.1,2.4,2.4C73.3,13.8,73.3,87.9,73.3,87.9z"/>
	<circle class="st0" cx="50.9" cy="81.7" r="1.9"/>
</g>
</svg>
