<?xml version="1.0" encoding="utf-8"?>
<!-- Generator: Adobe Illustrator 27.1.1, SVG Export Plug-In . SVG Version: 6.00 Build 0)  -->
<svg version="1.1" id="Layer_1" xmlns="http://www.w3.org/2000/svg" xmlns:xlink="http://www.w3.org/1999/xlink" x="0px" y="0px"
	 viewBox="0 0 100.5 100.5" style="enable-background:new 0 0 100.5 100.5;" xml:space="preserve">
<style type="text/css">
	.st0{fill:#121212;}
</style>
<g>
	<path class="st0" d="M67.1,60.7c-2.9-2.4-7-2.2-9.7,0L39.1,46.2c0.2-0.9,0.3-1.8,0.2-2.7c-0.2-2-1.2-3.9-2.8-5.2
		c-3.3-2.7-8.1-2.2-10.8,1.1c-2.4,2.9-2.2,7.1,0.2,9.9L14.7,62.2c-1.6-1.2-3.5-1.8-5.5-1.6c-2,0.2-3.9,1.2-5.2,2.8
		c-2.7,3.3-2.2,8.1,1.1,10.8c1.4,1.1,3.1,1.7,4.8,1.7c0.3,0,0.5,0,0.8,0c2-0.2,3.9-1.2,5.2-2.8c1.3-1.6,1.9-3.6,1.7-5.6
		c-0.1-1-0.4-2-0.9-2.9l11.8-13.4c1.1,0.5,2.2,0.8,3.3,0.8c2.2,0,4.4-1,5.9-2.8c0,0,0.1-0.1,0.1-0.2L55.5,63
		c-1.7,3.2-0.9,7.2,1.9,9.5c1.4,1.2,3.1,1.7,4.8,1.7c2.2,0,4.4-1,5.9-2.8c1.3-1.6,1.9-3.6,1.7-5.6C69.7,63.8,68.7,62,67.1,60.7z
		 M13.5,71.1c-0.8,1-1.9,1.6-3.1,1.7c-1.2,0.1-2.5-0.2-3.4-1c-2-1.6-2.3-4.6-0.7-6.6c1.6-2,4.6-2.3,6.6-0.7c0.2,0.2,0.4,0.3,0.5,0.5
		c0.1,0.2,0.2,0.3,0.3,0.4c0.4,0.6,0.7,1.4,0.8,2.2C14.7,69,14.3,70.2,13.5,71.1z M35.3,47.2c-0.8,1-1.9,1.6-3.1,1.7
		c-1.2,0.1-2.5-0.2-3.4-1c-2-1.6-2.3-4.6-0.7-6.6c1.6-2,4.6-2.3,6.6-0.7c1,0.8,1.6,1.9,1.7,3.1C36.5,45,36.1,46.2,35.3,47.2z
		 M65.9,69.6c-1.6,2-4.6,2.3-6.6,0.7c-2-1.6-2.3-4.6-0.7-6.6c0.9-1.1,2.3-1.7,3.6-1.7c1,0,2.1,0.3,2.9,1
		C67.2,64.6,67.5,67.6,65.9,69.6z"/>
	<path class="st0" d="M74.1,54.2c-0.6-0.5-1.6-0.4-2.1,0.2l-2.3,2.9c-0.5,0.6-0.4,1.6,0.2,2.1c0.3,0.2,0.6,0.3,0.9,0.3
		c0.4,0,0.9-0.2,1.2-0.6l2.3-2.9C74.8,55.7,74.7,54.7,74.1,54.2z"/>
	<path class="st0" d="M83.5,42.3c-0.6-0.5-1.6-0.4-2.1,0.2l-4.7,5.9c-0.5,0.6-0.4,1.6,0.2,2.1c0.3,0.2,0.6,0.3,0.9,0.3
		c0.4,0,0.9-0.2,1.2-0.6l4.7-5.9C84.3,43.8,84.2,42.9,83.5,42.3z"/>
	<path class="st0" d="M90.5,33.5c-0.6-0.5-1.6-0.4-2.1,0.2l-2.3,2.9c-0.5,0.6-0.4,1.6,0.2,2.1c0.3,0.2,0.6,0.3,0.9,0.3
		c0.4,0,0.9-0.2,1.2-0.6l2.3-2.9C91.3,35,91.2,34.1,90.5,33.5z"/>
	<path class="st0" d="M97.1,24.4c-0.4-0.3-0.9-0.4-1.4-0.2l-11.2,4.2c-0.8,0.3-1.2,1.2-0.9,1.9c0.3,0.8,1.1,1.2,1.9,0.9l9.2-3.4
		l-0.2,9.8c0,0.8,0.6,1.5,1.5,1.5c0,0,0,0,0,0c0.8,0,1.5-0.7,1.5-1.5l0.2-12C97.8,25.2,97.5,24.7,97.1,24.4z"/>
</g>
</svg>
