<?xml version="1.0" encoding="utf-8"?>
<!-- Generator: Adobe Illustrator 27.1.1, SVG Export Plug-In . SVG Version: 6.00 Build 0)  -->
<svg version="1.1" id="Layer_1" xmlns="http://www.w3.org/2000/svg" xmlns:xlink="http://www.w3.org/1999/xlink" x="0px" y="0px"
	 viewBox="0 0 100.4 100.4" style="enable-background:new 0 0 100.4 100.4;" xml:space="preserve">
<style type="text/css">
	.st0{fill:#121212;}
</style>
<g>
	<path class="st0" d="M96.7,39.2c-0.2-0.8-1-1.3-1.8-1.1c-0.8,0.2-1.3,1-1.1,1.8c0.8,3.2,1.2,6.6,1.2,10.1
		c0,24.9-20.7,45.1-46.1,45.1S2.9,74.8,2.9,50C2.9,25.1,23.6,4.9,49,4.9c10.1,0,19.8,3.2,28,9.3c0.6,0.5,1.6,0.3,2-0.3
		s0.3-1.6-0.3-2C70,5.4,59.7,2,49,2C22,2,0,23.5,0,50c0,26.5,22,48,49,48s49-21.5,49-48C98,46.3,97.6,42.7,96.7,39.2z"/>
	<path class="st0" d="M48,71.7c-0.4,0-0.8-0.2-1-0.4L19.6,43.9c-0.6-0.6-0.6-1.5,0-2.1c0.6-0.6,1.5-0.6,2.1,0l26.2,26.2l49.5-55.5
		c0.5-0.6,1.5-0.7,2.1-0.1s0.7,1.5,0.1,2.1L49.1,71.2C48.8,71.5,48.4,71.7,48,71.7C48,71.7,48,71.7,48,71.7z"/>
</g>
</svg>
