<?xml version="1.0" encoding="utf-8"?>
<!-- Generator: Adobe Illustrator 27.1.1, SVG Export Plug-In . SVG Version: 6.00 Build 0)  -->
<svg version="1.1" id="Layer_1" xmlns="http://www.w3.org/2000/svg" xmlns:xlink="http://www.w3.org/1999/xlink" x="0px" y="0px"
	 viewBox="0 0 108.4 122.9" style="enable-background:new 0 0 108.4 122.9;" xml:space="preserve">
<style type="text/css">
	.st0{fill:#121212;}
</style>
<path class="st0" d="M108,111.4L94.2,23.8c-0.1-0.9-0.9-1.6-1.8-1.6L84.1,22l-8.8-7.9l0,0c0,0,0,0,0,0c-0.1-0.1-0.1-0.1-0.2-0.1
	c0,0-0.1,0-0.1-0.1c-0.1,0-0.1-0.1-0.2-0.1c0,0-0.1,0-0.1-0.1c-0.1,0-0.2-0.1-0.3-0.1c-0.1,0-0.2,0-0.3,0c-0.1,0-0.2,0-0.2,0
	c-0.1,0-0.1,0-0.2,0c-0.1,0-0.1,0-0.2,0l-2.6,0.8c-0.4-1-0.9-2-1.4-2.9c-2.5-3.9-5.7-6.3-9.4-7c-0.9-0.2-1.7-0.2-2.6-0.2
	c-0.9-0.8-2.4-2.1-4.6-2.8c-5.1-1.7-9.6,0.7-11.6,1.7c-5.1,2.7-7.6,6.8-9.9,10.5c-2.7,4.5-4.7,9.4-6,14.7L11,33
	c-0.7,0.2-1.2,0.8-1.3,1.6l-9.2,72.8c-0.1,1,0.6,1.9,1.6,2.1l72.5,12.4c0.1,0,0.2,0,0.3,0c0.1,0,0.2,0,0.3,0c0.1,0,0.1,0,0.2,0
	c0,0,0,0,0.1,0l0.2,0l31.1-8.3C107.5,113.2,108.1,112.3,108,111.4z M66.2,13.6c0.4,0.6,0.7,1.3,1,2l-4.9,1.5
	c-0.1-1.3-0.3-2.6-0.6-3.8c-0.3-1.5-0.7-3.1-1.4-4.6C63.7,9.7,65.5,12.6,66.2,13.6z M53.3,9.2c0.4-0.2,1.3-0.6,2.5-0.9
	c1.3,1.7,1.7,3.6,2.2,5.8c0.3,1.4,0.5,2.8,0.5,4.2l-14.9,4.6c0.3-0.9,0.6-1.8,1-2.7c0.7-1.7,1.7-4.3,4-6.9
	C50.1,11.5,51.2,10.2,53.3,9.2z M34.6,15.8c2.2-3.6,4.2-6.9,8.4-9.1c1.6-0.9,5.1-2.7,8.6-1.5c0.3,0.1,0.5,0.2,0.7,0.3
	c-0.2,0.1-0.4,0.2-0.6,0.3c-2.8,1.3-4.4,3.2-6,5c-2.6,3.1-3.9,6.2-4.6,8c-0.7,1.8-1.3,3.6-1.7,5.4l-9.7,3
	C30.8,23.1,32.5,19.3,34.6,15.8z M4.4,106.1l8.8-69.8l13.9-4.3l0.9-0.3c0,0,0,0,0,0L40,28l2.6-0.8l17-5.2h0l2.6-0.8l6.5-2l2.9-0.9
	l0.5-0.2h0l0.8,96.5l0,3.2L4.4,106.1z M76.7,117.5l-0.8-97.8l6.2,5.5c0.3,0.3,0.8,0.5,1.2,0.5l7.4,0.2l13.3,84.3L76.7,117.5z"/>
<path class="st0" d="M44.6,62.8c-2.5-1.6-4.9-3.1-5-4.6c0-0.4,0-1.4,0.7-2.2c0.8-1,2.4-1.5,4.5-1.7c4.3-0.2,7.9,1.3,7.9,1.4l2,0.9
	l4.6-17.1L58,38.7c-0.2-0.1-3.7-1.7-10.1-1.3c-17.5,1-24.8,13.6-24.2,24.9c0.5,8.2,5.4,11.7,9.3,14.5c3.1,2.2,4.8,3.5,4.9,5.9
	c0,0.1,0.1,2.7-2.6,2.9c-3.5,0.2-8.5-2.9-10.1-4.1l-2.3-1.7l-3.2,14.2l0.7,0.7c0.3,0.3,6.4,6.6,17.3,6.6c0.6,0,1.3,0,1.9-0.1
	c5.2-0.3,9.8-2.6,12.9-6.4c2.9-3.5,4.4-8.1,4.4-13.3c0-0.6,0-1.1,0-1.7C56.3,70.2,49.5,65.9,44.6,62.8z M49.6,92.3
	c-2.5,3-6,4.8-10.2,5c-8.3,0.6-13.7-3.2-15.5-4.7l1.5-6.6c2.5,1.5,6.6,3.5,10.3,3.3c4.2-0.2,6.3-3.7,6.1-6.8
	c-0.3-4.3-3.5-6.6-6.5-8.8c-3.6-2.6-7.3-5.2-7.7-11.6c-0.5-9.7,5.7-20,20.6-20.9c3.1-0.2,5.4,0.2,6.8,0.5l-2.6,9.8
	c-1.8-0.5-4.5-1.1-7.6-0.9c-3.2,0.2-5.7,1.2-7.2,3c-1.7,1.9-1.7,4.2-1.6,5c0.2,3.4,3.4,5.4,6.7,7.5c4.7,3,10,6.4,10.4,14
	C53.3,84.9,52.1,89.1,49.6,92.3z"/>
</svg>
