<?xml version="1.0" encoding="utf-8"?>
<!-- Generator: Adobe Illustrator 27.1.1, SVG Export Plug-In . SVG Version: 6.00 Build 0)  -->
<svg version="1.1" id="Capa_1" xmlns="http://www.w3.org/2000/svg" xmlns:xlink="http://www.w3.org/1999/xlink" x="0px" y="0px"
	 viewBox="0 0 100 100" style="enable-background:new 0 0 100 100;" xml:space="preserve">
<style type="text/css">
	.st0{fill:#121212;}
</style>
<path class="st0" d="M35.5,56.6c0,2.9-2.4,5.2-5.3,5.3c-2.9,0-5.2-2.4-5.3-5.3c0-2.9,2.4-5.2,5.3-5.2h5.3V56.6z M38.2,56.6
	c0-2.9,2.4-5.2,5.3-5.2c2.9,0,5.2,2.4,5.2,5.2v13.2c0,2.9-2.4,5.2-5.2,5.3c-2.9,0-5.2-2.4-5.3-5.3V56.6z M43.4,35.5
	c-2.9,0-5.2-2.4-5.3-5.3c0-2.9,2.4-5.2,5.3-5.3c2.9,0,5.2,2.4,5.2,5.3v5.3H43.4z M43.4,38.2c2.9,0,5.2,2.4,5.2,5.3
	c0,2.9-2.4,5.2-5.2,5.2H30.3c-2.9,0-5.2-2.4-5.3-5.2c0-2.9,2.4-5.2,5.3-5.3H43.4z M64.5,43.4c0-2.9,2.4-5.2,5.2-5.3
	c2.9,0,5.2,2.4,5.3,5.3c0,2.9-2.4,5.2-5.3,5.2h-5.2V43.4z M61.8,43.4c0,2.9-2.4,5.2-5.3,5.2c-2.9,0-5.2-2.4-5.2-5.2V30.3
	c0-2.9,2.4-5.2,5.2-5.3c2.9,0,5.2,2.4,5.3,5.3V43.4z M56.6,64.5c2.9,0,5.2,2.4,5.3,5.2c0,2.9-2.4,5.2-5.3,5.3
	c-2.9,0-5.2-2.4-5.2-5.3v-5.2H56.6z M56.6,61.8c-2.9,0-5.2-2.4-5.2-5.3c0-2.9,2.4-5.2,5.2-5.2h13.2c2.9,0,5.2,2.4,5.3,5.2
	c0,2.9-2.4,5.2-5.3,5.3H56.6z"/>
</svg>
