<?xml version="1.0" encoding="utf-8"?>
<!-- Generator: Adobe Illustrator 27.1.1, SVG Export Plug-In . SVG Version: 6.00 Build 0)  -->
<svg version="1.1" id="Capa_1" xmlns="http://www.w3.org/2000/svg" xmlns:xlink="http://www.w3.org/1999/xlink" x="0px" y="0px"
	 viewBox="0 0 100 100" style="enable-background:new 0 0 100 100;" xml:space="preserve">
<style type="text/css">
	.st0{fill-rule:evenodd;clip-rule:evenodd;}
</style>
<path class="st0" d="M50,2.8C24,2.8,2.8,24,2.8,50S24,97.2,50,97.2S97.2,76,97.2,50S76,2.8,50,2.8z M7.3,50
	C7.3,26.5,26.5,7.3,50,7.3S92.7,26.5,92.7,50S73.5,92.7,50,92.7S7.3,73.5,7.3,50z M38.3,28.4c-3.1,0-5.9,1.2-7.9,3.5
	c-2,2.3-3,5.7-2.9,10.1l0,0.8h6.5l0-0.8c0-2.5,0.5-4.1,1.2-5c0.7-0.9,1.6-1.4,3-1.4c1.4,0,2.8,0.4,4.4,1.1c1.2,0.5,2.5,1.1,3.9,1.8
	l0.1,0l0,0l0,0c0.5,0.2,0.9,0.5,1.4,0.7l0,0c5.8,2.7,9,3.8,12.5,3.8c2.8,0,5.5-0.9,7.5-3.1c2-2.2,3.1-5.6,2.9-10.4l0-0.7h-5.7v0.8
	l-0.8,0c0,2.3-0.4,3.9-1,4.9c-0.6,1-1.5,1.4-2.7,1.4c-2.9,0-5.8-1.4-10.1-3.5l0,0l0,0C44.9,29.6,42.1,28.4,38.3,28.4z M53.5,44.2
	l-7.9-2.8v36.4h7.9V44.2z"/>
<path class="st0" d="M50,3C24.1,3,3,24.1,3,50s21.1,47,47,47s47-21.1,47-47S75.9,3,50,3z M2.5,50C2.5,23.8,23.8,2.5,50,2.5
	S97.5,23.8,97.5,50S76.2,97.5,50,97.5S2.5,76.2,2.5,50z M7.1,50C7.1,26.3,26.3,7.1,50,7.1S92.9,26.3,92.9,50S73.7,92.9,50,92.9
	S7.1,73.7,7.1,50z M50,7.6C26.6,7.6,7.6,26.6,7.6,50s19,42.4,42.4,42.4s42.4-19,42.4-42.4S73.4,7.6,50,7.6z M38.3,28.7
	c-3,0-5.8,1.1-7.7,3.4c-1.9,2.3-3,5.6-2.9,9.9l0,0.5h6.1l0-0.5c0-2.5,0.5-4.1,1.3-5.2c0.7-1,1.8-1.5,3.1-1.5c1.4,0,2.9,0.4,4.5,1.1
	c1.2,0.5,2.5,1.1,3.9,1.8l0.1,0l0,0c0,0,0,0,0,0 M30.3,31.7c2-2.4,4.9-3.6,8-3.6c3.8,0,6.7,1.2,12.4,3.9l0,0l0,0
	c4.3,2.1,7.1,3.4,10,3.4c0.6,0,1.1-0.1,1.5-0.3c0.4-0.2,0.7-0.5,1-1c0.6-1,1-2.5,1-4.8c0-0.3,0-0.7,0-1c0.3,0,0.5,0,0.8,0h6.1l0,1
	c0.2,4.8-0.9,8.3-2.9,10.6c-2,2.3-4.8,3.2-7.6,3.2c-3.6,0-6.8-1.1-12.6-3.8l0,0l0,0c-0.5-0.2-1-0.5-1.4-0.7l0,0l-0.1,0
	c-1.4-0.7-2.7-1.3-3.8-1.8c-1.6-0.7-3-1.1-4.3-1.1c-1.2,0-2.1,0.4-2.8,1.3c-0.7,0.9-1.1,2.5-1.2,4.9l0,1h-7l0-1
	C27.2,37.6,28.3,34.1,30.3,31.7z M50.5,32.5L50.5,32.5L50.5,32.5L50.5,32.5L50.5,32.5c4.3,2.1,7.2,3.5,10.2,3.5
	c0.7,0,1.2-0.1,1.7-0.4c0.5-0.3,0.9-0.7,1.2-1.2c0.6-1,1-2.6,1.1-4.8l0.8,0v-0.8h5.2l0,0.5c0.2,4.8-0.9,8.1-2.8,10.3
	c-1.9,2.2-4.6,3-7.3,3c-3.5,0-6.6-1.1-12.4-3.8l0,0 M45.3,41.1l8.4,3v34h-8.4V41.1z M45.8,41.8v35.9h7.4V44.4L45.8,41.8z"/>
</svg>
