<?xml version="1.0" encoding="utf-8"?>
<!-- Generator: Adobe Illustrator 27.1.1, SVG Export Plug-In . SVG Version: 6.00 Build 0)  -->
<svg version="1.1" id="Capa_1" xmlns="http://www.w3.org/2000/svg" xmlns:xlink="http://www.w3.org/1999/xlink" x="0px" y="0px"
	 viewBox="0 0 100 100" style="enable-background:new 0 0 100 100;" xml:space="preserve">
<style type="text/css">
	.st0{fill-rule:evenodd;clip-rule:evenodd;fill:#121212;}
</style>
<path class="st0" d="M50,2C23.5,2,2,23.5,2,50s21.5,48,48,48s48-21.5,48-48S76.5,2,50,2z M50,91.9C26.9,91.9,8.1,73.1,8.1,50
	S26.9,8.1,50,8.1S91.9,26.9,91.9,50S73.1,91.9,50,91.9z"/>
<polygon class="st0" points="53.7,44.1 53.7,78.1 45.3,78.1 45.3,41.1 "/>
<path class="st0" d="M68.2,39.9c-2,2.3-4.8,3.2-7.6,3.2c-3.6,0-6.8-1.1-12.6-3.8c-0.5-0.2-1-0.5-1.4-0.7h-0.1
	c-1.4-0.7-2.7-1.3-3.8-1.8c-1.6-0.7-3-1.1-4.3-1.1c-1.2,0-2.1,0.4-2.8,1.3c-0.7,0.9-1.1,2.5-1.2,4.9v1h-7v-1
	c-0.2-4.3,0.9-7.8,2.9-10.2c2-2.4,4.9-3.6,8-3.6c3.8,0,6.7,1.2,12.4,3.9c2.1,1,3.9,1.9,5.5,2.5c1.6,0.6,3,0.9,4.5,0.9
	c0.6,0,1.1-0.1,1.5-0.3c0.4-0.2,0.7-0.5,1-1c0.6-1,1-2.5,1-4.8v-1h6.9v1C71.3,34.1,70.2,37.6,68.2,39.9z"/>
</svg>
