<?xml version="1.0" encoding="utf-8"?>
<!-- Generator: Adobe Illustrator 27.1.1, SVG Export Plug-In . SVG Version: 6.00 Build 0)  -->
<svg version="1.1" id="Capa_1" xmlns="http://www.w3.org/2000/svg" xmlns:xlink="http://www.w3.org/1999/xlink" x="0px" y="0px"
	 viewBox="0 0 100 100" style="enable-background:new 0 0 100 100;" xml:space="preserve">
<style type="text/css">
	.st0{fill:#121212;}
</style>
<path class="st0" d="M68.7,25H31.3c-3.5,0-6.3,2.8-6.3,6.3v37.5c0,3.5,2.8,6.3,6.3,6.3h37.5c3.5,0,6.3-2.8,6.3-6.3V31.3
	C75,27.8,72.2,25,68.7,25z M46.7,64.2c0,1.7-1.3,3-3,3h-9.3c-1.7,0-3-1.3-3-3V35.8c0-1.7,1.3-3,3-3h9.3c1.7,0,3,1.3,3,3V64.2z
	 M68.5,51.7c0,1.7-1.3,3-3,3h-9.3c-1.7,0-3-1.3-3-3V35.8c0-1.7,1.3-3,3-3h9.3c1.7,0,3,1.3,3,3V51.7z"/>
</svg>
