<?xml version="1.0" encoding="utf-8"?>
<!-- Generator: Adobe Illustrator 27.1.1, SVG Export Plug-In . SVG Version: 6.00 Build 0)  -->
<svg version="1.1" id="Capa_1" xmlns="http://www.w3.org/2000/svg" xmlns:xlink="http://www.w3.org/1999/xlink" x="0px" y="0px"
	 viewBox="0 0 100 100" style="enable-background:new 0 0 100 100;" xml:space="preserve">
<style type="text/css">
	.st0{fill:#121212;}
</style>
<path class="st0" d="M75,34.8c-1.8,0.9-3.9,1.4-5.9,1.6c2-1.4,3.6-3.2,4.5-5.7c-2,1.1-4.1,2-6.6,2.5c-1.8-2-4.5-3.2-7.5-3.2
	c-5.7,0-10.2,4.5-10.2,10.2c0,0.9,0,1.6,0.2,2.3C41.1,42,33.6,38,28.4,31.8C27.5,33.4,27,35,27,37c0,3.6,1.8,6.6,4.5,8.4
	c-1.6,0-3.2-0.5-4.5-1.4v0.2c0,5,3.4,9.1,8.2,10c-0.9,0.2-1.8,0.5-2.7,0.5c-0.7,0-1.4,0-1.8-0.2c1.4,4.1,5,7,9.5,7
	c-3.4,2.7-8,4.3-12.7,4.3c-0.9,0-1.6,0-2.5-0.2c4.5,3,9.8,4.5,15.7,4.5c18.9,0,29.1-15.5,29.1-29.1v-1.4C72,38.6,73.6,36.8,75,34.8z
	"/>
</svg>
