<?xml version="1.0" encoding="utf-8"?>
<!-- Generator: Adobe Illustrator 27.1.1, SVG Export Plug-In . SVG Version: 6.00 Build 0)  -->
<svg version="1.1" id="Layer_1" xmlns="http://www.w3.org/2000/svg" xmlns:xlink="http://www.w3.org/1999/xlink" x="0px" y="0px"
	 viewBox="0 0 256 256" style="enable-background:new 0 0 256 256;" xml:space="preserve">
<style type="text/css">
	.st0{opacity:0.25;}
	.st1{fill-rule:evenodd;clip-rule:evenodd;}
</style>
<g>
	<path d="M246.9,27.6L194.2,2.2c-6.1-2.9-13.4-1.7-18.2,3.1L3.3,162.8c-4.6,4.2-4.6,11.6,0,15.8l14.1,12.8c3.8,3.5,9.5,3.7,13.6,0.6
		L239,34.2c7-5.3,17-0.3,17,8.4v-0.6C256,35.9,252.5,30.3,246.9,27.6z"/>
	<g>
		<path d="M246.9,228.4l-52.8,25.4c-6.1,2.9-13.4,1.7-18.2-3.1L3.3,93.2c-4.6-4.2-4.6-11.6,0-15.8l14.1-12.8
			C21.2,61.2,27,60.9,31,64L239,221.8c7,5.3,17,0.3,17-8.4v0.6C256,220.1,252.5,225.7,246.9,228.4z"/>
	</g>
	<g>
		<path d="M194.2,253.8c-6.1,2.9-13.4,1.7-18.2-3.1c5.9,5.9,16,1.7,16-6.6V12c0-8.4-10.1-12.5-16-6.6c4.8-4.8,12.1-6,18.2-3.1
			l52.7,25.4c5.5,2.7,9.1,8.3,9.1,14.4v172c0,6.1-3.5,11.8-9.1,14.4L194.2,253.8z"/>
	</g>
	<g class="st0">
		<path class="st1" d="M181.4,254.2c4,1.6,8.6,1.5,12.7-0.5l52.7-25.4c5.5-2.7,9.1-8.3,9.1-14.4V42c0-6.2-3.5-11.8-9.1-14.4
			L194.1,2.2c-5.3-2.6-11.6-1.9-16.3,1.5c-0.7,0.5-1.3,1-1.9,1.6L75,97.4L31,64c-4.1-3.1-9.8-2.8-13.6,0.6L3.3,77.4
			c-4.7,4.2-4.7,11.5,0,15.8L41.4,128L3.3,162.8c-4.6,4.2-4.6,11.6,0,15.8l14.1,12.8c3.8,3.5,9.5,3.7,13.6,0.6l44-33.4l100.9,92.1
			C177.5,252.3,179.4,253.5,181.4,254.2z M191.9,69.9L115.3,128l76.6,58.1V69.9z"/>
	</g>
</g>
</svg>
