<?xml version="1.0" encoding="utf-8"?>
<!-- Generator: Adobe Illustrator 27.1.1, SVG Export Plug-In . SVG Version: 6.00 Build 0)  -->
<svg version="1.1" id="Layer_1" xmlns="http://www.w3.org/2000/svg" xmlns:xlink="http://www.w3.org/1999/xlink" x="0px" y="0px"
	 viewBox="0 0 256 256" style="enable-background:new 0 0 256 256;" xml:space="preserve">
<style type="text/css">
	.st0{fill-rule:evenodd;clip-rule:evenodd;fill:#121212;}
</style>
<g>
	<path class="st0" d="M41.5,128L3.3,93.2L41.5,128L3.3,162.8L41.5,128z M1.8,91.5c-2.9-4.1-2.5-10,1.1-13.7
		C-0.8,81.5-1.2,87.3,1.8,91.5z M182.7,1.3c-0.1,0-0.2,0.1-0.3,0.1c0,0,0,0,0,0C182.5,1.4,182.6,1.3,182.7,1.3
		C182.7,1.3,182.7,1.3,182.7,1.3z M180.2,2.3c0,0-0.1,0-0.1,0.1C180.2,2.3,180.2,2.3,180.2,2.3c0.3-0.2,0.6-0.3,0.9-0.4
		c0,0,0,0,0.1,0c-0.2,0.1-0.5,0.2-0.7,0.3C180.4,2.2,180.3,2.2,180.2,2.3z M175.9,5.3L75,97.4L175.9,5.3c0.4-0.3,0.7-0.5,0.9-0.8
		c0.2-0.2,0.5-0.4,0.7-0.6c0.3-0.2,0.5-0.4,0.8-0.6c0.3-0.2,0.7-0.4,1-0.6c0.2-0.1,0.4-0.2,0.6-0.3c-0.8,0.4-1.6,0.8-2.3,1.4
		C177.1,4.2,176.5,4.7,175.9,5.3z M191.9,69.9v116.1l0.1,0.1L191.9,69.9L191.9,69.9z"/>
	<path class="st0" d="M255.9,40.8C255.9,40.8,255.9,40.8,255.9,40.8c-0.1-1.9-0.6-3.6-1.3-5.3c0,0,0,0,0,0c-1.5-3.5-4.2-6.3-7.8-8
		L194.1,2.2c-0.6-0.3-1.2-0.6-1.9-0.8c-0.2-0.1-0.4-0.1-0.6-0.2c-0.1,0-0.2,0-0.3-0.1C191,1.1,190.7,1,190.5,1
		c-0.2,0-0.4-0.1-0.6-0.1c0,0,0,0,0,0c-0.2,0-0.3-0.1-0.5-0.1c-0.2,0-0.5-0.1-0.7-0.1c-0.1,0-0.3,0-0.4,0c-0.5,0-0.9,0-1.4,0
		c-0.2,0-0.5,0-0.7,0c-0.2,0-0.5,0-0.7,0.1c-0.2,0-0.3,0-0.4,0.1c-0.3,0-0.5,0.1-0.8,0.1c-0.3,0-0.5,0.1-0.8,0.2c-0.1,0-0.1,0-0.2,0
		c-0.1,0-0.2,0.1-0.3,0.1c0,0-0.1,0-0.1,0c-0.1,0-0.2,0-0.3,0.1c-0.1,0-0.2,0.1-0.3,0.1c0,0-0.1,0-0.1,0c-0.2,0.1-0.5,0.2-0.7,0.3
		c0,0-0.1,0-0.1,0c-0.3,0.1-0.6,0.3-0.9,0.4c-0.3,0.1-0.5,0.2-0.8,0.4c-0.3,0.2-0.7,0.4-1,0.6c-0.3,0.2-0.6,0.4-0.8,0.6
		c-0.2,0.2-0.5,0.4-0.7,0.6c-0.3,0.2-0.6,0.5-0.8,0.8L75,97.4h0l0,0L31,64c-0.2-0.2-0.5-0.3-0.7-0.5c-0.4-0.2-0.8-0.4-1.1-0.6
		c-0.2-0.1-0.4-0.2-0.6-0.3c-0.2-0.1-0.4-0.1-0.6-0.2c-0.2-0.1-0.4-0.1-0.6-0.2c-0.4-0.1-0.8-0.2-1.2-0.2c-0.2,0-0.4,0-0.6-0.1
		c-0.9-0.1-1.8,0-2.7,0.1c-0.2,0-0.3,0.1-0.5,0.1c-0.3,0.1-0.6,0.2-0.9,0.3c-0.2,0-0.3,0.1-0.5,0.2c-1.2,0.5-2.4,1.2-3.4,2.1
		L3.3,77.4c-0.1,0.1-0.3,0.3-0.4,0.4c-3.6,3.7-4,9.5-1.1,13.7c0.2,0.3,0.4,0.6,0.7,0.9c0.3,0.3,0.5,0.6,0.8,0.8L41.5,128L3.3,162.8
		c-4.6,4.2-4.6,11.6,0,15.8l14.1,12.8c3.8,3.5,9.5,3.7,13.6,0.6l44-33.4l0,0l0,0l100.9,92.1c0.2,0.2,0.5,0.5,0.7,0.7
		c0.2,0.2,0.3,0.3,0.5,0.4c0.2,0.2,0.5,0.4,0.7,0.5c0.2,0.2,0.5,0.3,0.8,0.5c0.5,0.3,1,0.6,1.6,0.8c0.1,0.1,0.3,0.1,0.5,0.2
		c0.1,0.1,0.2,0.1,0.4,0.2c0,0,0,0,0,0c0.1,0,0.2,0.1,0.4,0.1c4,1.6,8.6,1.5,12.7-0.5l52.7-25.4c5.1-2.5,8.5-7.5,9-13
		c0-0.5,0.1-0.9,0.1-1.4V42C255.9,41.6,255.9,41.2,255.9,40.8z M191.9,186.1L191.9,186.1l-76.6-58l0,0l0,0l76.6-58.1v0l0.1-0.1
		L191.9,186.1L191.9,186.1z"/>
	<path class="st0" d="M180.5,2.1c0.2-0.1,0.4-0.2,0.6-0.3c-0.3,0.1-0.6,0.3-0.9,0.4C180.3,2.2,180.4,2.2,180.5,2.1z"/>
	<path class="st0" d="M182.7,1.3C182.7,1.3,182.7,1.3,182.7,1.3c-0.1,0-0.2,0-0.2,0.1C182.5,1.4,182.6,1.3,182.7,1.3z"/>
	<path class="st0" d="M183.2,1.2c0.3-0.1,0.7-0.2,1-0.2c-0.3,0-0.5,0.1-0.8,0.2C183.3,1.1,183.3,1.2,183.2,1.2z"/>
	<path class="st0" d="M184.9,0.8c0.1,0,0.3,0,0.4-0.1c-0.4,0-0.8,0.1-1.2,0.2C184.4,0.9,184.7,0.9,184.9,0.8z"/>
</g>
</svg>
