<?xml version="1.0" encoding="utf-8"?>
<!-- Generator: Adobe Illustrator 27.1.1, SVG Export Plug-In . SVG Version: 6.00 Build 0)  -->
<svg version="1.1" id="Layer_1" xmlns="http://www.w3.org/2000/svg" xmlns:xlink="http://www.w3.org/1999/xlink" x="0px" y="0px"
	 viewBox="0 0 122.9 122.9" style="enable-background:new 0 0 122.9 122.9;" xml:space="preserve">
<g>
	<path d="M61.4,0C27.5,0,0,27.5,0,61.4s27.5,61.4,61.4,61.4s61.4-27.5,61.4-61.4S95.4,0,61.4,0L61.4,0z M106.4,36.9
		c0.2,1.6,0.3,3.4,0.3,5.3c0,5.2-1,11-3.9,18.3l-15.6,45.2c15.2-8.9,25.5-25.4,25.5-44.2C112.6,52.5,110.4,44.2,106.4,36.9
		L106.4,36.9z M62.3,65.9L47,110.6c4.6,1.3,9.4,2.1,14.5,2.1c6,0,11.7-1,17-2.9c-0.1-0.2-0.3-0.4-0.4-0.7L62.3,65.9L62.3,65.9z
		 M96,58.9c0-6.3-2.3-10.7-4.2-14.1c-2.6-4.2-5-7.8-5-12c0-4.7,3.6-9.1,8.6-9.1c0.2,0,0.4,0,0.7,0c-9.1-8.4-21.2-13.4-34.6-13.4
		c-17.9,0-33.6,9.2-42.8,23.1c1.2,0,2.3,0.1,3.3,0.1c5.4,0,13.6-0.7,13.6-0.7c2.8-0.2,3.1,3.9,0.3,4.2c0,0-2.8,0.3-5.9,0.5
		l18.6,55.5l11.2-33.6l-8-21.9c-2.8-0.2-5.4-0.5-5.4-0.5c-2.8-0.2-2.4-4.4,0.3-4.2c0,0,8.5,0.7,13.5,0.7c5.4,0,13.6-0.7,13.6-0.7
		c2.8-0.2,3.1,3.9,0.3,4.2c0,0-2.8,0.3-5.9,0.5l18.5,55l5.3-16.7C94.6,68.4,96,63.2,96,58.9L96,58.9z M10.2,61.4
		c0,20.3,11.8,37.8,28.9,46.1L14.7,40.6C11.8,47,10.2,54,10.2,61.4L10.2,61.4z M61.4,3.7c7.8,0,15.4,1.5,22.5,4.5
		c3.4,1.4,6.7,3.2,9.8,5.3c3.1,2.1,5.9,4.4,8.6,7s5,5.5,7.1,8.5c2.1,3.1,3.9,6.4,5.3,9.8c3,7.1,4.5,14.7,4.5,22.5
		s-1.5,15.4-4.5,22.5c-1.4,3.4-3.2,6.7-5.3,9.8c-2.1,3.1-4.4,5.9-7.1,8.6s-5.5,5-8.6,7.1c-3.1,2.1-6.4,3.9-9.8,5.3
		c-7.1,3-14.7,4.5-22.5,4.5s-15.4-1.5-22.5-4.5c-3.4-1.4-6.7-3.2-9.8-5.3c-3.1-2.1-5.9-4.4-8.5-7.1s-5-5.5-7.1-8.6
		c-2.1-3.1-3.9-6.4-5.3-9.8c-3-7.1-4.5-14.7-4.5-22.5S5.2,46.1,8.2,39c1.4-3.4,3.2-6.7,5.3-9.8c2.1-3.1,4.4-5.9,7-8.5s5.5-5,8.5-7.1
		c3.1-2.1,6.4-3.9,9.8-5.3C46.1,5.2,53.6,3.7,61.4,3.7L61.4,3.7z"/>
</g>
</svg>
