<?xml version="1.0" encoding="utf-8"?>
<!-- Generator: Adobe Illustrator 27.1.1, SVG Export Plug-In . SVG Version: 6.00 Build 0)  -->
<svg version="1.1" id="Capa_2_00000113351641839448453270000015638481610754292886_"
	 xmlns="http://www.w3.org/2000/svg" xmlns:xlink="http://www.w3.org/1999/xlink" x="0px" y="0px" viewBox="0 0 470.2 337.8"
	 style="enable-background:new 0 0 470.2 337.8;" xml:space="preserve">
<style type="text/css">
	.st0{fill:#A30738;}
</style>
<g id="Capa_1-2">
	<path class="st0" d="M406.1,212.1v72.3c-7,20.1-28,31.2-58.8,31.2c-56.3,0-90.4-48.9-90.4-121.2c0-80.6,40.7-124.1,109.7-124.1
		c21.4,0,38.6,5.3,50.1,14.8c-14.4,3.7-24.2,15.6-24.2,31.2c0,19.3,14.8,32.9,34.1,32.9s32.1-13.6,32.1-32.9
		c0-43.2-47.3-74.4-111.4-74.4S228,74.8,203.2,124.5L148.8,0h-22.6L0,287.7h28.8l30-69.5h115.1l30,69.5h22.1
		c28.4,31.1,70.3,50.1,117.2,50.1c39.9,0,73.2-10.3,91.7-27.1l17.3,23h18.1V212.1H406.1L406.1,212.1z M68.2,196.1l47.7-111l48.1,111
		C164,196.1,68.2,196.1,68.2,196.1z"/>
</g>
</svg>
